<svg width="2098" height="296" viewBox="0 0 2098 296" fill="none" xmlns="http://www.w3.org/2000/svg">
<path d="M1342.36 138.042C1342.36 74.94 1389.95 32.4449 1451 32.4449C1498.8 32.4449 1524.95 57.2657 1538.96 82.7783C1540.3 85.2265 1539.24 88.2618 1536.71 89.4589L1500.9 106.453C1498.31 107.678 1495.25 106.478 1493.85 103.99C1485.94 89.9805 1469.93 79.0149 1451 79.0149C1419.31 79.0149 1395.75 104.745 1395.75 138.042C1395.75 171.34 1419.2 197.07 1451 197.07C1469.93 197.07 1485.94 186.104 1493.85 172.095C1495.25 169.607 1498.31 168.407 1500.9 169.632L1536.7 186.618C1539.23 187.818 1540.29 190.864 1538.93 193.312C1525.08 218.27 1498.73 243.64 1451 243.64C1389.95 243.64 1342.36 200.795 1342.36 138.042Z" fill="#080808"/>
<path d="M1564.3 239.914C1561.54 239.914 1559.3 237.676 1559.3 234.914V40.8214C1559.3 38.06 1561.54 35.8214 1564.3 35.8214H1606.77C1609.53 35.8214 1611.77 38.06 1611.77 40.8214V192.793C1611.77 193.483 1612.33 194.043 1613.02 194.043H1688.6C1691.36 194.043 1693.6 196.281 1693.6 199.043V234.914C1693.6 237.676 1691.36 239.914 1688.6 239.914H1564.3Z" fill="#080808"/>
<path d="M1705.6 40.8214C1705.6 38.06 1707.84 35.8214 1710.6 35.8214H1753.99C1756.75 35.8214 1758.99 38.06 1758.99 40.8214V155.506C1758.99 179.723 1771.76 197.186 1800.2 197.186C1828.63 197.186 1841.05 179.723 1841.05 155.506V40.8214C1841.05 38.06 1843.29 35.8214 1846.05 35.8214H1889.45C1892.21 35.8214 1894.45 38.06 1894.45 40.8214V157.02C1894.45 207.781 1865.43 243.64 1800.2 243.64C1734.96 243.64 1705.6 207.548 1705.6 157.369V40.8214Z" fill="#080808"/>
<path d="M1923.45 240.031C1920.69 240.031 1918.45 237.792 1918.45 235.031V40.8214C1918.45 38.06 1920.69 35.8214 1923.45 35.8214H2033.82C2074.1 35.8214 2093.37 62.1334 2093.37 87.8634C2093.37 110.713 2081.1 126.493 2064.86 132.756C2063.57 133.253 2063.65 135.777 2064.96 136.208C2083.52 142.296 2097.31 161.477 2097.31 184.612C2097.31 214.301 2077.46 240.031 2037.54 240.031H1923.45ZM1970.91 113.508C1970.91 114.198 1971.47 114.758 1972.16 114.758H2021.87C2032.55 114.758 2039.86 107.073 2039.86 96.9445C2039.86 86.8155 2032.55 79.4808 2021.87 79.4808H1972.16C1971.47 79.4808 1970.91 80.0404 1970.91 80.7308V113.508ZM1970.91 194.889C1970.91 195.579 1971.47 196.139 1972.16 196.139H2023.72C2036.26 196.139 2043.92 188.454 2043.92 177.511C2043.92 167.149 2036.61 158.184 2023.72 158.184H1972.16C1971.47 158.184 1970.91 158.744 1970.91 159.434V194.889Z" fill="#080808"/>
<path d="M643.728 240.276C640.967 240.276 638.728 238.038 638.728 235.276V40.9999C638.728 38.2385 640.967 35.9999 643.728 35.9999H688.431C691.193 35.9999 693.431 38.2385 693.431 40.9999V235.276C693.431 238.038 691.193 240.276 688.431 240.276H643.728Z" fill="#080808"/>
<path d="M766.855 35.9999C769.616 35.9999 771.855 38.2385 771.855 40.9999V193.121C771.855 193.812 772.414 194.371 773.105 194.371H868.993C871.754 194.371 873.993 196.61 873.993 199.371V235.276C873.993 238.038 871.754 240.276 868.993 240.276H722.151C719.39 240.276 717.151 238.038 717.151 235.276V40.9999C717.151 38.2385 719.39 35.9999 722.151 35.9999H766.855Z" fill="#080808"/>
<path d="M1040.33 153.413C1040.33 156.174 1038.09 158.413 1035.33 158.413H952.327C951.636 158.413 951.077 158.972 951.077 159.663V193.121C951.077 193.812 951.636 194.371 952.327 194.371H1055.33C1058.09 194.371 1060.33 196.61 1060.33 199.371V235.276C1060.33 238.038 1058.09 240.276 1055.33 240.276H901.374C898.612 240.276 896.374 238.038 896.374 235.276V40.9999C896.374 38.2385 898.612 35.9999 901.374 35.9999H1055.33C1058.09 35.9999 1060.33 38.2385 1060.33 40.9999V76.9046C1060.33 79.6661 1058.09 81.9046 1055.33 81.9046H952.327C951.636 81.9046 951.077 82.4643 951.077 83.1546V112.788C951.077 113.478 951.636 114.038 952.327 114.038H1035.33C1038.09 114.038 1040.33 116.277 1040.33 119.038V153.413Z" fill="#080808"/>
<path d="M1242.78 89.5318C1241.24 91.5151 1238.48 92.0444 1236.27 90.8393C1222.13 83.0985 1198.24 72.9151 1170.85 72.9151C1154.21 72.9151 1139.86 80.3746 1139.86 93.5722C1139.86 107.917 1163.39 109.256 1185.58 111.36C1223.06 113.847 1282.36 118.82 1282.36 174.671C1282.36 226.313 1239.7 246.588 1188.44 246.588C1140.01 246.588 1104.04 228.999 1079.41 211.731C1077.09 210.108 1076.67 206.877 1078.42 204.658L1101.74 175.129C1103.38 173.048 1106.35 172.61 1108.54 174.114C1124.21 184.904 1154.34 203.744 1187.68 203.744C1213.12 203.744 1227.65 192.841 1227.65 179.261C1227.65 164.533 1210.06 161.664 1183.85 159.56C1138.14 155.735 1085.35 151.144 1085.35 96.25C1085.35 45.5635 1132.59 29.4968 1172.38 29.4968C1210.8 29.4968 1245.37 41.4082 1264.99 51.7936C1267.65 53.2001 1268.3 56.6513 1266.45 59.0269L1242.78 89.5318Z" fill="#080808"/>
<path d="M514.598 92.023L557.879 39.6311C559.778 37.3314 562.606 35.9999 565.588 35.9999H610.008C612.769 35.9999 615.008 38.2385 615.008 40.9999V235.276C615.008 238.038 612.769 240.276 610.008 240.276H566.643C563.882 240.276 561.643 238.037 561.643 235.276V145.715C561.643 143.497 562.136 141.306 563.084 139.3L583.234 96.7075C583.489 96.1677 582.755 95.7153 582.388 96.1863L517.579 179.363C515.577 181.933 511.692 181.933 509.691 179.363L444.882 96.1863C444.515 95.7154 443.78 96.1677 444.036 96.7075L464.185 139.3C465.134 141.306 465.626 143.497 465.626 145.715V235.276C465.626 238.037 463.387 240.276 460.626 240.276H415.923C413.161 240.276 410.923 238.038 410.923 235.276V40.9999C410.923 38.2385 413.161 35.9999 415.923 35.9999H461.681C464.664 35.9999 467.491 37.3314 469.391 39.6311L512.671 92.023C513.171 92.6282 514.098 92.6282 514.598 92.023Z" fill="#080808"/>
<path fill-rule="evenodd" clip-rule="evenodd" d="M314.769 0C320.377 0 324.923 4.54603 324.923 10.1538V239.877C324.923 244.343 322.005 248.284 317.734 249.588L171.357 294.284C165.559 296.054 159.364 296.054 153.566 294.284L7.1886 249.588C2.91762 248.284 0 244.343 0 239.877V10.1538C0 4.54602 4.54603 0 10.1538 0H314.769ZM32.2117 227.425C32.2117 231.626 36.2208 234.668 40.267 233.537L103.159 215.948C107.583 214.711 110.642 210.679 110.642 206.085V155.957C110.642 151.369 109.399 146.867 107.044 142.929L87.741 110.65C86.9673 109.356 88.6926 108.033 89.7417 109.115L155.17 176.62C159.16 180.736 165.763 180.736 169.753 176.62L235.181 109.115C236.231 108.033 237.956 109.356 237.182 110.65L217.879 142.929C215.524 146.867 214.281 151.369 214.281 155.957V206.085C214.281 210.679 217.34 214.711 221.764 215.948L284.656 233.537C288.702 234.668 292.711 231.626 292.711 227.425V38.4822C292.711 34.9774 289.87 32.1361 286.365 32.1361H219.696C216.237 32.1361 212.927 33.5482 210.533 36.0457L164.294 84.2867C163.295 85.3293 161.628 85.3293 160.629 84.2867L114.39 36.0457C111.996 33.5482 108.686 32.1361 105.227 32.1361H38.5578C35.053 32.1361 32.2117 34.9774 32.2117 38.4822V227.425Z" fill="#080808"/>
</svg>
