<svg xmlns="http://www.w3.org/2000/svg" viewBox="0 0 1200 1200" font-family="Pretendard, 'Apple SD Gothic Neo', sans-serif">
 <defs><linearGradient id="bg" x1="0" y1="0" x2="1" y2="1"><stop offset="0" stop-color="#eaffd4"/><stop offset="1" stop-color="#7fd42a"/></linearGradient></defs>
 <rect width="1200" height="1200" fill="url(#bg)"/>
 <rect x="48" y="48" width="1104" height="1104" rx="60" fill="#ffffff"/>
 <text x="600" y="128" text-anchor="middle" font-size="30" font-weight="700" fill="#3f8f00">마일스클럽 · 요금제 타입 테스트</text>
 <text x="600" y="182" text-anchor="middle" font-size="34" font-weight="800" fill="#26382b">상위 14% 희귀 타입</text>
 <rect x="380" y="224" width="440" height="430" rx="52" fill="#f2ffe4" stroke="#dbeecb" stroke-width="3"/>
 <g transform="translate(400,240) scale(1.667)"><defs>
    <clipPath id="wm-body"><ellipse cx="120" cy="134" rx="56" ry="60"/></clipPath>
  </defs>
  <!-- wifi signal -->
  <g fill="none" stroke="#46a302" stroke-width="6" stroke-linecap="round">
    <path d="M106 60 Q120 48 134 60"/>
    <path d="M97 52 Q120 32 143 52"/>
    <path d="M88 45 Q120 19 152 45"/>
  </g>
  <circle cx="120" cy="66" r="4.5" fill="#46a302"/>
  <!-- shadow -->
  <ellipse cx="120" cy="216" rx="54" ry="10" fill="#26382b" opacity="0.08"/>
  <!-- body -->
  <ellipse cx="120" cy="134" rx="56" ry="60" fill="#7ed42a" stroke="#26382b" stroke-width="6"/>
  <ellipse cx="120" cy="150" rx="40" ry="42" fill="#a6ee5c" clip-path="url(#wm-body)"/>
  <!-- cheeks -->
  <ellipse cx="94" cy="140" rx="8" ry="5.5" fill="#ffb3a7"/>
  <ellipse cx="146" cy="140" rx="8" ry="5.5" fill="#ffb3a7"/>
  <!-- sleepy content eyes -->
  <g fill="none" stroke="#26382b" stroke-width="5" stroke-linecap="round">
    <path d="M96 126 Q103 133 110 126"/>
    <path d="M130 126 Q137 133 144 126"/>
  </g>
  <!-- smile -->
  <path d="M112 150 Q120 158 128 150" fill="none" stroke="#26382b" stroke-width="5" stroke-linecap="round"/>
  <!-- cozy blanket -->
  <path d="M66 164 Q120 146 174 164 Q182 204 120 210 Q58 204 66 164 Z" fill="#dcffbf" stroke="#26382b" stroke-width="6" stroke-linejoin="round"/>
  <path d="M78 172 Q120 160 162 172" fill="none" stroke="#8fce4f" stroke-width="4" stroke-linecap="round"/></g>
 <text x="600" y="742" text-anchor="middle" font-size="84" font-weight="800" fill="#243024">와이파이</text>
 <text x="600" y="828" text-anchor="middle" font-size="84" font-weight="800" fill="#243024">은둔자형</text>
 <rect x="140" y="866" width="920" height="140" rx="34" fill="#f2ffe4"/>
 <text x="600" y="928" text-anchor="middle" font-size="34" font-weight="700" fill="#3f8f00">밖에서는 데이터 아끼고 집에서는</text><text x="600" y="974" text-anchor="middle" font-size="34" font-weight="700" fill="#3f8f00">와이파이에 모든 걸 맡기는 타입</text>
 <text x="600" y="1086" text-anchor="middle" font-size="30" font-weight="700" fill="#5b6b52">내 요금제는 무슨 타입? · 30초 테스트</text>
</svg>