<svg xmlns="http://www.w3.org/2000/svg" viewBox="0 0 312 120" role="img" aria-label="여행 캐리어">
  <defs><linearGradient id="luggagebg" x1="0" y1="0" x2="0" y2="1">
    <stop offset="0" stop-color="#f3ffe6"/><stop offset="1" stop-color="#e2f7cb"/>
  </linearGradient></defs>
  <rect width="312" height="120" fill="url(#luggagebg)"/>
  <g transform="translate(96 14)">
    <!-- 손잡이 -->
    <path d="M34 16 V4 H86 V16" fill="none" stroke="#26382b" stroke-width="6" stroke-linejoin="round"/>
    <!-- 본체 -->
    <rect x="10" y="16" width="100" height="74" rx="14" fill="#7ed42a" stroke="#26382b" stroke-width="6"/>
    <rect x="26" y="16" width="14" height="74" fill="#dcffbf"/>
    <rect x="80" y="16" width="14" height="74" fill="#dcffbf"/>
    <rect x="10" y="16" width="100" height="74" rx="14" fill="none" stroke="#26382b" stroke-width="6"/>
    <!-- 지퍼 라인 -->
    <path d="M10 56 H110" stroke="#26382b" stroke-width="5"/>
    <!-- 바퀴 -->
    <circle cx="30" cy="98" r="9" fill="#ffffff" stroke="#26382b" stroke-width="5"/>
    <circle cx="90" cy="98" r="9" fill="#ffffff" stroke="#26382b" stroke-width="5"/>
  </g>
  <!-- 넣다 만 옷/양말 -->
  <g transform="translate(212 44)">
    <path d="M0 26 q10 -22 26 -10 q14 -14 26 4 l-6 26 h-40 z" fill="#ffd23f" stroke="#26382b" stroke-width="5" stroke-linejoin="round"/>
  </g>
  <!-- 네임태그 -->
  <g transform="translate(52 40)">
    <rect x="0" y="0" width="30" height="40" rx="6" fill="#e8604c" stroke="#26382b" stroke-width="5"/>
    <path d="M15 0 V-10" stroke="#26382b" stroke-width="5" stroke-linecap="round"/>
    <g stroke="#ffffff" stroke-width="4" stroke-linecap="round">
      <path d="M8 14 h14"/><path d="M8 24 h9"/>
    </g>
  </g>
</svg>
