<svg xmlns="http://www.w3.org/2000/svg" viewBox="0 0 240 240" role="img" aria-label="알뜰폰 빠꼼이형">
  <!-- price tags -->
  <g stroke="#26382b" stroke-width="4" stroke-linejoin="round">
    <path d="M150 40 L176 40 L192 56 L166 82 L150 66 Z" fill="#dcffbf"/>
    <path d="M176 34 L200 34 L214 48 L190 72 L176 58 Z" fill="#ffd23f"/>
  </g>
  <circle cx="160" cy="50" r="3" fill="#26382b"/>
  <circle cx="186" cy="44" r="3" fill="#26382b"/>
  <!-- shadow -->
  <ellipse cx="118" cy="216" rx="54" ry="10" fill="#26382b" opacity="0.08"/>
  <!-- feet -->
  <ellipse cx="102" cy="198" rx="11" ry="7" fill="#63b81e" stroke="#26382b" stroke-width="5"/>
  <ellipse cx="136" cy="198" rx="11" ry="7" fill="#63b81e" stroke="#26382b" stroke-width="5"/>
  <!-- body -->
  <ellipse cx="118" cy="136" rx="56" ry="58" fill="#7ed42a" stroke="#26382b" stroke-width="6"/>
  <ellipse cx="118" cy="150" rx="38" ry="38" fill="#a6ee5c"/>
  <!-- cheeks -->
  <ellipse cx="90" cy="146" rx="8" ry="5.5" fill="#ffb3a7"/>
  <!-- raised eyebrow (clever) -->
  <path d="M92 116 Q100 110 108 114" fill="none" stroke="#26382b" stroke-width="5" stroke-linecap="round"/>
  <!-- left normal eye -->
  <circle cx="100" cy="128" r="6" fill="#26382b"/>
  <!-- smirk -->
  <path d="M104 152 Q114 160 126 154" fill="none" stroke="#26382b" stroke-width="5" stroke-linecap="round"/>
  <!-- arm holding magnifier -->
  <path d="M150 150 Q160 140 150 126" fill="none" stroke="#26382b" stroke-width="6" stroke-linecap="round"/>
  <!-- magnifying glass over right eye -->
  <line x1="150" y1="150" x2="162" y2="166" stroke="#26382b" stroke-width="7" stroke-linecap="round"/>
  <circle cx="140" cy="128" r="20" fill="#eaf7ff" fill-opacity="0.65" stroke="#26382b" stroke-width="6"/>
  <!-- enlarged eye through lens -->
  <circle cx="140" cy="128" r="8" fill="#26382b"/>
  <circle cx="143" cy="124" r="2.6" fill="#ffffff"/>
</svg>
